<svg width="482" height="482" viewBox="0 0 482 482" fill="none" xmlns="http://www.w3.org/2000/svg">
<g clip-path="url(#clip0_1532_20051)">
<path d="M240.951 481.901C374.024 481.901 481.901 374.024 481.901 240.951C481.901 107.877 374.024 0 240.951 0C107.877 0 0 107.877 0 240.951C0 374.024 107.877 481.901 240.951 481.901Z" fill="black"/>
<path d="M207.42 200.334V187.183C202.912 186.566 198.331 186.18 193.653 186.18C137.325 186.18 91.502 232.003 91.502 288.33C91.502 322.888 108.775 353.47 135.113 371.963C118.106 353.711 107.675 329.259 107.675 302.412C107.675 246.895 152.205 201.615 207.42 200.322V200.334Z" fill="#25F4EE"/>
<path d="M209.826 349.083C234.955 349.083 255.456 329.09 256.386 304.19L256.471 81.7693H297.109C296.263 77.2003 295.803 72.4983 295.803 67.6875H240.298L240.213 290.108C239.283 315.02 218.782 335.001 193.653 335.001C185.844 335.001 178.483 333.043 172.016 329.646C180.501 341.395 194.269 349.095 209.838 349.095L209.826 349.083Z" fill="#25F4EE"/>
<path d="M373.018 157.254V144.889C357.522 144.889 343.077 140.284 330.966 132.391C341.748 144.768 356.398 153.701 373.018 157.254Z" fill="#25F4EE"/>
<path d="M330.966 132.38C319.156 118.818 311.976 101.11 311.976 81.7578H297.109C301.025 102.899 313.572 121.042 330.966 132.38Z" fill="#FE2C55"/>
<path d="M193.653 241.689C167.931 241.689 146.995 262.613 146.995 288.347C146.995 306.26 157.161 321.829 172.004 329.637C166.468 321.974 163.168 312.582 163.168 302.429C163.168 276.706 184.103 255.771 209.826 255.771C214.624 255.771 219.23 256.569 223.593 257.923V201.269C219.084 200.652 214.503 200.266 209.826 200.266C209.016 200.266 208.218 200.314 207.408 200.326V243.841C203.057 242.475 198.439 241.689 193.64 241.689H193.653Z" fill="#FE2C55"/>
<path d="M373.018 157.258V200.398C344.238 200.398 317.573 191.187 295.803 175.57V288.358C295.803 344.685 249.98 390.509 193.653 390.509C171.883 390.509 151.697 383.643 135.113 371.991C153.776 392.02 180.357 404.591 209.838 404.591C266.165 404.591 311.989 358.767 311.989 302.44V189.652C333.758 205.281 360.423 214.48 389.203 214.48V158.974C383.655 158.974 378.24 158.37 373.03 157.258H373.018Z" fill="#FE2C55"/>
<path d="M295.803 288.344V175.556C317.573 191.185 344.238 200.384 373.018 200.384V157.244C356.398 153.69 341.748 144.757 330.966 132.38C313.572 121.042 301.025 102.899 297.109 81.7578H256.471L256.386 304.178C255.456 329.091 234.955 349.071 209.826 349.071C194.257 349.071 180.489 341.384 172.004 329.623C157.149 321.802 146.995 306.245 146.995 288.332C146.995 262.61 167.931 241.674 193.653 241.674C198.451 241.674 203.057 242.472 207.42 243.826V200.311C152.205 201.605 107.675 246.884 107.675 302.402C107.675 329.26 118.106 353.701 135.113 371.953C151.709 383.605 171.883 390.471 193.653 390.471C249.98 390.471 295.803 344.647 295.803 288.32V288.344Z" fill="white"/>
</g>
<defs>
<clipPath id="clip0_1532_20051">
<rect width="481.889" height="481.889" fill="white"/>
</clipPath>
</defs>
</svg>
